<?xml version="1.0" encoding="UTF-8" standalone="no"?>
<!DOCTYPE svg PUBLIC "-//W3C//DTD SVG 1.1//EN" "http://www.w3.org/Graphics/SVG/1.1/DTD/svg11.dtd">
<!-- Created with Vectornator (http://vectornator.io/) -->
<svg height="100%" stroke-miterlimit="10" style="fill-rule:nonzero;clip-rule:evenodd;stroke-linecap:round;stroke-linejoin:round;" version="1.1" viewBox="0 0 2476 2476" width="100%" xml:space="preserve" xmlns="http://www.w3.org/2000/svg" xmlns:vectornator="http://vectornator.io" xmlns:xlink="http://www.w3.org/1999/xlink">
<defs/>
<g id="Untitled" vectornator:layerName="Untitled">
<path d="M2390.94 813.494C2390.94 280.52 2041.66 124.246 2041.66 124.246C1698.95-33.1236 788.729-31.4786 449.314 124.246C449.314 124.246 100.029 280.52 100.029 813.494C100.029 1447.91 63.8396 2235.86 679.063 2398.71C901.136 2457.38 1091.95 2469.99 1245.49 2461.22C1524.04 2445.87 1680.31 2361.97 1680.31 2361.97L1670.99 2159.64C1670.99 2159.64 1471.94 2222.15 1248.23 2215.02C1026.7 2207.34 793.115 2190.89 756.926 1918.92C753.636 1894.8 751.991 1869.57 751.991 1842.7C1221.36 1957.31 1621.64 1892.6 1731.85 1879.44C2039.46 1842.7 2307.6 1652.98 2341.59 1479.71C2395.33 1206.64 2390.94 813.494 2390.94 813.494ZM1979.15 1500L1723.63 1500L1723.63 873.81C1723.63 601.291 1372.7 590.873 1372.7 911.645L1372.7 1254.35L1118.82 1254.35L1118.82 911.645C1118.82 590.873 767.892 601.291 767.892 873.81L767.892 1500L511.823 1500C511.823 830.492 483.31 689.024 612.715 540.427C754.732 381.96 1050.28 371.542 1181.88 573.875L1245.49 680.799L1309.09 573.875C1441.24 370.445 1737.34 383.057 1878.26 540.427C2008.21 690.12 1979.15 831.041 1979.15 1500Z" fill="#000000" fill-rule="nonzero" opacity="1" stroke="none"/>
</g>
</svg>
